<?xml version="1.0" encoding="UTF-8" standalone="no"?>
<svg
   xmlns:dc="http://purl.org/dc/elements/1.1/"
   xmlns:cc="http://creativecommons.org/ns#"
   xmlns:rdf="http://www.w3.org/1999/02/22-rdf-syntax-ns#"
   xmlns:svg="http://www.w3.org/2000/svg"
   xmlns="http://www.w3.org/2000/svg"
   xmlns:sodipodi="http://sodipodi.sourceforge.net/DTD/sodipodi-0.dtd"
   xmlns:inkscape="http://www.inkscape.org/namespaces/inkscape"
   version="1.1"
   x="0px"
   y="0px"
   viewBox="0 0 450 300.83402"
   enable-background="new 0 0 100 100"
   xml:space="preserve"
   id="svg821"
   sodipodi:docname="tank.svg"
   width="450"
   height="300.83401"
   inkscape:version="0.92.3 (unknown)"><metadata
     id="metadata827"><rdf:RDF><cc:Work
         rdf:about=""><dc:format>image/svg+xml</dc:format><dc:type
           rdf:resource="http://purl.org/dc/dcmitype/StillImage" /><dc:title></dc:title></cc:Work></rdf:RDF></metadata><defs
     id="defs825" /><sodipodi:namedview
     pagecolor="#ffffff"
     bordercolor="#666666"
     borderopacity="1"
     objecttolerance="10"
     gridtolerance="10"
     guidetolerance="10"
     inkscape:pageopacity="0"
     inkscape:pageshadow="2"
     inkscape:window-width="2495"
     inkscape:window-height="1416"
     id="namedview823"
     showgrid="false"
     fit-margin-top="0"
     fit-margin-left="0"
     fit-margin-right="0"
     fit-margin-bottom="0"
     scale-x="0.8"
     inkscape:zoom="1"
     inkscape:cx="158.19016"
     inkscape:cy="88.247678"
     inkscape:window-x="1985"
     inkscape:window-y="24"
     inkscape:window-maximized="1"
     inkscape:current-layer="svg821" /><path
     d="m 24.164142,122.44509 c -0.0141,0.01 -0.0285,0 -0.0426,0.01 L 0.58238691,137.84458 c -0.08991,0.0568 -0.09465,0.17037 -0.165636,0.24135 -0.07572,0.071 -0.189297,0.0805 -0.246087,0.17037 -0.03786,0.0615 -0.0095,0.13725 -0.03786,0.19875 -0.03786,0.0852 -0.09938,0.13725 -0.123045,0.22716 -0.02841,0.11832 0.01425,0.22242 0.01425,0.34547 0,0.17037 0,0.30288 0.06151,0.45905 0.02367,0.0663 -0.01425,0.13725 0.01893,0.20349 L 33.051712,202.21983 c 0.12777,0.25083 0.321804,0.43539 0.544227,0.56316 0,0 0,0.009 0.0048,0.009 L 203.09301,300.6399 c 0.22242,0.1278 0.46851,0.1941 0.70514,0.1941 0.0899,0 0.17982,-0.009 0.26976,-0.03 l 32.95671,-6.34149 c 0.0472,-0.009 0.0663,-0.0567 0.1041,-0.0756 0.1041,-0.03 0.21768,-0.0378 0.3076,-0.0948 h 0.0285 l 47.07357,-27.18312 c 0.015,0 0.015,-0.018 0.0297,-0.03 0.015,-0.009 0.0378,0 0.0568,-0.018 0.15618,-0.0993 0.1893,-0.2886 0.2934,-0.43539 0.0994,-0.1467 0.24609,-0.2604 0.28395,-0.42594 0.0474,-0.1752 -0.0378,-0.34074 -0.0663,-0.51582 -0.03,-0.1752 0.03,-0.35022 -0.0711,-0.51585 -0.009,-0.009 -0.033,-0.009 -0.0426,-0.03 -0.009,-0.009 0,-0.03 -0.009,-0.0474 l -5.30017,-7.96944 89.12602,-51.44632 h 0.018 l 32.95197,-6.35094 c 0.0474,-0.009 0.0663,-0.0568 0.1041,-0.0663 0.1041,-0.0285 0.213,-0.0378 0.30759,-0.0947 0.009,0 0.018,0 0.03,-0.009 l 47.08305,-27.18314 c 0.009,-0.009 0.009,-0.0285 0.018,-0.0285 0.018,-0.0189 0.0378,-0.009 0.0567,-0.0189 0.1563,-0.1089 0.1941,-0.2934 0.2934,-0.44485 0.0993,-0.13725 0.246,-0.25083 0.2886,-0.42593 0.0378,-0.16563 -0.0474,-0.33126 -0.0756,-0.51583 -0.018,-0.17511 0.03,-0.35019 -0.0663,-0.50637 -0.009,-0.0189 -0.03,-0.0189 -0.0378,-0.0378 -0.009,-0.009 0,-0.0285 -0.009,-0.0378 l -23.5447,-35.34554 c -0.0519,-0.0805 -0.1515,-0.0805 -0.2178,-0.1467 -0.0615,-0.0663 -0.0615,-0.16563 -0.1371,-0.22242 L 237.58296,0.17305928 c -0.0757,-0.05205 -0.16563,-0.0189 -0.25083,-0.05679 -0.17037,-0.08046 -0.31707,-0.1041 -0.50637,-0.11358 -0.1893,-0.0096 -0.34072,0.0048 -0.52056,0.07098 -0.0852,0.0285 -0.17037,-0.0141 -0.25554,0.03312 l -26.13727,15.07754172 -14.40081,-0.06624 -2.087,-1.400806 c -0.0709,-0.04731 -0.15618,-0.0141 -0.22716,-0.04731 -0.1278,-0.06153 -0.22716,-0.10884 -0.36441,-0.12777 -0.0568,-0.0048 -0.0852,-0.06153 -0.14205,-0.06627 l -27.87879,-1.102659 c -0.16563,-0.0096 -0.26502,0.1041 -0.407,0.14196 -0.11835,0.0285 -0.24609,-0.0189 -0.35967,0.04731 L 46.548576,80.392631 c -0.04731,0.0141 -0.08046,0.05205 -0.12303,0.07098 l -0.0852,0.04731 c 0,0 0,0.0048 -0.0048,0.0048 -0.22242,0.13251 -0.406989,0.307608 -0.5253,0.539499 0,0.0048 -0.0048,0.0096 -0.0096,0.0141 -0.03786,0.08046 -0.06153,0.16563 -0.08517,0.25554 -0.0141,0.03786 -0.0189,0.07098 -0.0285,0.11358 -0.0141,0.08046 -0.05205,0.15618 -0.05679,0.24135 -0.0048,0.08517 0.07098,0.14196 0.08517,0.22242 0.0096,0.0852 -0.05205,0.15618 -0.0237,0.24135 l 7.117587,23.74738 -28.621791,16.52095 c -0.0141,0.01 -0.0141,0.0285 -0.0237,0.0331 z M 204.05363,297.91449 35.375289,200.5398 5.1775919,143.2347 l 0.757191,0.4969 29.3647861,55.71502 c 0.12777,0.24135 0.321807,0.43537 0.544233,0.56316 h 0.0048 l 165.318308,95.43436 c 0.22242,0.1278 0.46851,0.1941 0.70515,0.1941 0.0804,0 0.15618,-0.009 0.23661,-0.018 l 28.58866,-4.81764 2.34255,1.53333 z M 10.83759,146.93546 227.20473,288.51585 202.14645,292.74192 37.623198,197.7666 Z m 270.98421,118.48135 -44.61744,25.75866 -21.96324,-32.9709 44.62689,-25.74918 13.26503,19.91883 3.3837,5.07315 z m 85.98843,-62.41138 -89.67025,51.76342 -2.04917,-3.06663 8.49002,-9.78672 110.19013,-63.61816 -3.82857,4.42009 v 0 l -4.45323,5.1489 v 0 l -6.88098,7.93157 v 0 h -0.006 l -0.66729,0.77613 z M 336.1407,114.84006 c -0.024,-0.17511 0.03,-0.3502 -0.0663,-0.51584 l -1.6611,-2.91991 14.41503,9.64944 -3.87111,2.24318 -10.79472,-6.23262 1.37712,-0.79979 0.015,-0.005 c 0.1608,-0.0947 0.2082,-0.27921 0.31707,-0.41645 0.1137,-0.1467 0.2886,-0.26028 0.33603,-0.44012 0.0474,-0.17982 -0.0378,-0.37386 -0.0663,-0.56316 z m 15.13434,8.08301 8.72664,9.05315 -12.20025,-7.04187 z m -7.02765,3.23699 0.009,0.005 h 0.009 l 23.02329,13.29342 19.91886,11.49509 -13.64364,7.87952 -101.10853,-58.38884 13.63411,-7.865317 44.53224,25.711347 0.009,0.005 v 0.005 z m 44.38554,27.25885 v 2.22898 5.43284 0.009 0.0189 8.05933 l -13.64835,7.88426 v -15.75903 z m -16.48308,7.87477 v 15.75903 l -59.43942,-34.32438 -13.62474,-7.87005 -19.48339,-11.23481 -7.31163,-19.99456 z m -40.81731,-45.87153 -44.5275,-25.711342 c -0.0663,-0.03312 -0.1278,0 -0.1893,-0.0237 -0.1704,-0.07098 -0.33129,-0.07098 -0.52059,-0.06624 -0.1893,0 -0.35019,-0.0048 -0.52056,0.06624 -0.0615,0.0237 -0.123,-0.0096 -0.1893,0.0237 l -16.46886,9.502737 c -0.13245,0.08046 -0.18456,0.22716 -0.28869,0.340734 -0.0663,0.07572 -0.17511,0.08991 -0.2319,0.17982 -0.0177,0.03786 0,0.08046 -0.0177,0.11832 -0.0994,0.212971 -0.0994,0.435391 -0.0852,0.676741 0.006,0.11832 -0.0378,0.22242 0,0.33127 0.006,0.0237 -0.009,0.0473 0,0.071 l 8.82602,24.14964 c 0.1089,0.31234 0.33127,0.5395 0.59155,0.7004 0.0177,0.01 0.015,0.0285 0.0297,0.0379 l 17.80341,10.26466 -42.06663,24.29161 -12.1245,-61.464921 62.26464,-35.938149 25.37064,44.61744 v 0 l 3.9279,6.90936 z m -80.76376,44.92505 -78.78092,-30.32074 21.19187,-72.780191 45.47874,41.669133 z m -81.256,-31.99129 -1.06953,-0.93229 v 0 0 L 116.82531,82.905557 128.86463,53.006003 v 0 l 1.68002,-4.164546 59.87009,7.032402 z m -55.4973,-45.568664 c -0.0426,0.10884 0.0189,0.21297 0,0.321807 -0.0285,0.1893 -0.0379,0.336003 0.005,0.520566 0.0426,0.18456 0.12303,0.312342 0.2319,0.468513 0.0663,0.08991 0.0568,0.21297 0.1467,0.28869 l 50.67488,43.874438 -10.45395,6.03859 L 77.612313,82.933952 124.69062,55.755548 Z m 53.32985,47.442704 1.97817,1.72261 c 0.0757,0.0662 0.17037,0.0473 0.25083,0.0947 0.071,0.0426 0.0899,0.12777 0.17037,0.16089 l 82.40123,31.71681 c 0.16563,0.0663 0.34074,0.0947 0.50637,0.0947 v 0 h 0.006 0.006 v 0 c 0.0947,0 0.17982,-0.009 0.26976,-0.0285 0.0521,-0.009 0.0757,-0.0663 0.11835,-0.0757 0.0995,-0.0378 0.21297,-0.0285 0.31234,-0.0947 l 45.20877,-26.10402 10.78524,6.23262 -75.28836,43.47693 -76.81223,-51.3659 z m 144.85521,15.3615 60.85446,35.14783 h 0.009 c 0.1515,0.0852 0.32655,0.1089 0.50166,0.13725 0.0711,0.009 0.1278,0.0474 0.1986,0.0474 v 0 0 c 0.0711,0 0.1278,-0.0378 0.1986,-0.0474 0.1752,-0.0285 0.35022,-0.0568 0.50166,-0.13725 h 0.009 l 16.47837,-9.52167 c 0.0663,-0.0378 0.0663,-0.1089 0.1182,-0.15618 0.1467,-0.1089 0.2223,-0.25083 0.31233,-0.41645 0.0993,-0.15618 0.1797,-0.2934 0.2034,-0.48271 0.009,-0.0663 0.0756,-0.1089 0.0756,-0.17511 v -5.36186 l 7.61448,7.89371 -115.1497,66.50023 -47.83076,-49.59595 z m 77.70669,42.9043 2.16273,-2.51292 4.63776,6.96141 z m 2.28105,4.87914 -7.64292,1.29196 3.47835,-4.01311 z m -15.64071,7.9789 4.21656,-2.44194 c 0.0852,-0.0474 0.0945,-0.1467 0.1563,-0.20349 0.0615,-0.0568 0.1563,-0.0378 0.2082,-0.0994 l 0.49218,-0.56316 14.06952,-2.37568 2.35203,1.54276 z m 70.26246,-31.06846 -44.62215,25.75866 -8.1918,-12.29489 8.64612,-9.97123 c 0.0756,-0.0947 0.0519,-0.21297 0.0993,-0.30288 0.0852,-0.1467 0.1467,-0.26976 0.1752,-0.43539 0.009,-0.0852 0.0474,-0.1467 0.0474,-0.2319 -0.006,-0.1278 -0.0852,-0.22242 -0.123,-0.35021 -0.033,-0.1089 0.015,-0.22242 -0.0426,-0.32179 -0.033,-0.0568 -0.0993,-0.0568 -0.1419,-0.1089 -0.0378,-0.0474 -0.024,-0.1089 -0.0663,-0.15618 l -10.92246,-11.3342 v -4.07937 L 424.647,137.30967 Z m -24.13539,-34.9964 -31.00221,17.89809 v -2.22898 c 0,-0.0709 -0.0663,-0.1089 -0.0756,-0.17511 -0.018,-0.1278 -0.0378,-0.22242 -0.0948,-0.34074 -0.024,-0.0663 0.009,-0.13245 -0.024,-0.19404 -0.033,-0.0615 -0.1134,-0.0663 -0.1515,-0.11835 -0.0804,-0.0994 -0.1467,-0.17037 -0.2508,-0.24609 -0.0567,-0.0426 -0.0567,-0.11832 -0.1182,-0.15144 l -21.8781,-12.63088 -16.33635,-16.95159 c -0.0426,-0.0426 -0.0993,-0.0285 -0.1419,-0.0615 -0.0426,-0.0379 -0.0378,-0.0994 -0.09,-0.13251 L 331.28964,105.88624 305.37957,60.322313 h -0.006 v -0.0048 c -0.0378,-0.06624 -0.1137,-0.07098 -0.1608,-0.12777 -0.0474,-0.05679 -0.033,-0.13725 -0.09,-0.19404 l -34.395,-32.738904 z M 301.79739,60.748271 239.95392,96.440333 194.64081,54.92264 257.52546,18.610631 Z M 236.6838,3.0125233 254.08971,15.406769 215.54399,15.208019 Z m -46.83696,14.9071717 5.21988,0.0285 15.21953,0.07098 h 0.009 0.009 l 42.18496,0.21768 -60.53616,34.958529 -57.89666,-6.805248 49.34987,-28.503483 z m -24.7412,-2.697489 16.1329,0.638877 -52.30766,30.211893 c -0.0331,0.0189 -0.0331,0.06627 -0.0662,0.08991 -0.13251,0.08991 -0.1893,0.22242 -0.28395,0.350202 -0.0757,0.09939 -0.20823,0.13725 -0.25554,0.26028 l -1.90717,4.718241 -51.843872,29.923218 -22.564269,-0.899163 z m -116.119849,68.014623 25.488918,1.012743 79.107451,52.903938 79.32989,53.04118 48.8435,50.66076 -7.28796,8.39061 -12.96689,-19.47399 c -0.0568,-0.0852 -0.15618,-0.0852 -0.22242,-0.1467 -0.0663,-0.0615 -0.0663,-0.1656 -0.13725,-0.2223 L 72.799425,95.309282 c -0.07572,-0.05205 -0.17037,-0.0189 -0.25083,-0.05679 -0.17037,-0.08046 -0.317076,-0.10884 -0.511101,-0.11358 -0.1893,-0.0096 -0.340737,0 -0.520572,0.07098 -0.08517,0.0285 -0.17511,-0.0141 -0.25083,0.03312 L 55.336701,104.43814 Z M 55.204215,107.79346 71.895531,98.158208 257.68635,230.43462 213.30081,256.05603 27.519441,123.77017 Z M 212.1887,258.74406 231.7526,288.09939 7.7993639,141.55941 v 0 L 3.9518909,139.03702 24.859809,125.365 134.21301,203.22503 Z"
     id="path815"
     inkscape:connector-curvature="0"
     style="fill:#000000;fill-opacity:1;stroke:none;stroke-width:0;stroke-miterlimit:4;stroke-dasharray:none;stroke-opacity:1"
     sodipodi:nodetypes="cccccccsccccccsccccccscccsccccccccccccccccccccccccscccccccccccccccccccscccccccccccccscccccccccccccccccccccccccccccccccccccccsccccccccccccccccccccccccccccccccccccccccccccccccccccccccccccccccccccccccccscccccccccccccccccccccccccccccccccccccccscccccccccccccccsccccccccccccccccccccccsccscccccccccccscccccccccccccccccccccccccccccccccccccccscccccccccccccccccccccc" /></svg>