<?xml version="1.0" encoding="UTF-8" standalone="no"?>
<svg
   xmlns:dc="http://purl.org/dc/elements/1.1/"
   xmlns:cc="http://creativecommons.org/ns#"
   xmlns:rdf="http://www.w3.org/1999/02/22-rdf-syntax-ns#"
   xmlns:svg="http://www.w3.org/2000/svg"
   xmlns="http://www.w3.org/2000/svg"
   xmlns:sodipodi="http://sodipodi.sourceforge.net/DTD/sodipodi-0.dtd"
   xmlns:inkscape="http://www.inkscape.org/namespaces/inkscape"
   version="1.1"
   x="0px"
   y="0px"
   viewBox="0 0 160 125"
   enable-background="new 0 0 100 100"
   xml:space="preserve"
   id="svg821"
   sodipodi:docname="tank.svg"
   width="160"
   height="125"
   inkscape:version="0.92.2 5c3e80d, 2017-08-06"><metadata
     id="metadata827"><rdf:RDF><cc:Work
         rdf:about=""><dc:format>image/svg+xml</dc:format><dc:type
           rdf:resource="http://purl.org/dc/dcmitype/StillImage" /><dc:title></dc:title></cc:Work></rdf:RDF></metadata><defs
     id="defs825" /><sodipodi:namedview
     pagecolor="#ffffff"
     bordercolor="#666666"
     borderopacity="1"
     objecttolerance="10"
     gridtolerance="10"
     guidetolerance="10"
     inkscape:pageopacity="0"
     inkscape:pageshadow="2"
     inkscape:window-width="1680"
     inkscape:window-height="1006"
     id="namedview823"
     showgrid="false"
     fit-margin-top="0"
     fit-margin-left="0"
     fit-margin-right="0"
     fit-margin-bottom="0"
     scale-x="0.8"
     inkscape:zoom="1"
     inkscape:cx="58.524292"
     inkscape:cy="154.3314"
     inkscape:window-x="0"
     inkscape:window-y="0"
     inkscape:window-maximized="1"
     inkscape:current-layer="svg821" /><path
     d="m 13.054711,53.176028 c -0.0047,0.0032 -0.0095,0 -0.0142,0.0032 l -7.846385,5.129965 c -0.029972,0.01893 -0.03155,0.05679 -0.055212,0.08045 -0.02524,0.02366 -0.063099,0.02682 -0.082029,0.05679 -0.01262,0.02051 -0.00315,0.04575 -0.01262,0.06625 -0.01262,0.0284 -0.033127,0.04575 -0.041014,0.07572 -0.00947,0.03944 0.00473,0.07414 0.00473,0.115156 0,0.05679 0,0.100959 0.020507,0.153016 0.00789,0.02209 -0.00473,0.04575 0.00631,0.06783 L 16.017219,79.767609 c 0.04259,0.08361 0.107268,0.145129 0.181409,0.187721 0,0 0,0.003 0.0016,0.003 l 56.497439,32.61597 c 0.07414,0.0426 0.15617,0.0647 0.235044,0.0647 0.02997,0 0.05994,-0.003 0.08992,-0.01 l 10.98557,-2.11383 c 0.01577,-0.003 0.02208,-0.0189 0.0347,-0.0252 0.03471,-0.01 0.07256,-0.0126 0.102536,-0.0316 h 0.0095 l 15.691194,-9.06104 c 0.0049,0 0.0049,-0.006 0.0099,-0.01 0.0049,-0.003 0.01262,0 0.01893,-0.006 0.05206,-0.0331 0.0631,-0.0962 0.0978,-0.14513 0.03313,-0.0489 0.08203,-0.0868 0.09465,-0.14198 0.0158,-0.0584 -0.0126,-0.11358 -0.0221,-0.17194 -0.01,-0.0584 0.01,-0.11674 -0.0237,-0.17195 -0.003,-0.003 -0.011,-0.003 -0.0142,-0.01 -0.003,-0.003 0,-0.01 -0.003,-0.0158 L 98.237683,98.068051 127.94636,80.919273 h 0.006 l 10.98399,-2.116981 c 0.0158,-0.0032 0.0221,-0.01893 0.0347,-0.02208 0.0347,-0.0095 0.071,-0.01262 0.10253,-0.03155 0.003,0 0.006,0 0.01,-0.0032 l 15.69435,-9.061044 c 0.003,-0.0032 0.003,-0.0095 0.006,-0.0095 0.006,-0.0063 0.0126,-0.0032 0.0189,-0.0063 0.0521,-0.03628 0.0647,-0.0978 0.0978,-0.148284 0.0331,-0.04575 0.082,-0.08361 0.0962,-0.141973 0.0126,-0.05521 -0.0158,-0.110424 -0.0252,-0.171945 -0.006,-0.05837 0.01,-0.116734 -0.0221,-0.168791 -0.003,-0.0063 -0.01,-0.0063 -0.0126,-0.01262 -0.003,-0.0032 0,-0.0095 -0.003,-0.01262 l -7.84825,-11.781642 c -0.0173,-0.02682 -0.0505,-0.02682 -0.0726,-0.0489 -0.0205,-0.02209 -0.0205,-0.05521 -0.0457,-0.07414 L 84.194318,12.418685 c -0.02524,-0.01735 -0.05521,-0.0063 -0.08361,-0.01893 -0.05679,-0.02682 -0.10569,-0.0347 -0.16879,-0.03786 -0.0631,-0.0032 -0.113578,0.0016 -0.173523,0.02366 -0.0284,0.0095 -0.05679,-0.0047 -0.08518,0.01104 l -8.712421,5.025847 -4.800271,-0.02208 -0.695668,-0.466935 c -0.02366,-0.01577 -0.05206,-0.0047 -0.07572,-0.01577 -0.04259,-0.02051 -0.07572,-0.03628 -0.121466,-0.04259 -0.01893,-0.0016 -0.0284,-0.02051 -0.04733,-0.02209 l -9.292934,-0.367553 c -0.05521,-0.0032 -0.08834,0.0347 -0.135663,0.04732 -0.03944,0.0095 -0.08203,-0.0063 -0.119888,0.01577 L 20.516189,39.158542 c -0.01577,0.0047 -0.02682,0.01735 -0.04101,0.02366 l -0.0284,0.01577 c 0,0 0,0.0016 -0.0016,0.0016 -0.07414,0.04417 -0.135663,0.102536 -0.1751,0.179833 0,0.0016 -0.0016,0.0032 -0.0032,0.0047 -0.01262,0.02682 -0.02051,0.05521 -0.02839,0.08518 -0.0047,0.01262 -0.0063,0.02366 -0.0095,0.03786 -0.0047,0.02682 -0.01735,0.05206 -0.01893,0.08045 -0.0016,0.02839 0.02366,0.04732 0.02839,0.07414 0.0032,0.0284 -0.01735,0.05206 -0.0079,0.08045 l 2.372529,7.915794 -9.540597,5.506981 c -0.0047,0.0032 -0.0047,0.0095 -0.0079,0.01104 z M 73.017873,111.66583 16.79176,79.2076 6.7258614,60.105897 6.9782583,60.271532 16.76652,78.843203 c 0.04259,0.08045 0.107269,0.145127 0.181411,0.187719 h 0.0016 l 55.106103,31.811458 c 0.07414,0.0426 0.15617,0.0647 0.235046,0.0647 0.02682,0 0.05206,-0.003 0.07887,-0.006 l 9.529555,-1.60588 0.780853,0.51111 z M 8.6125274,61.339486 80.734905,108.53295 72.382149,109.94164 17.541063,78.283197 Z m 90.3280736,39.493784 -14.872482,8.58622 -7.321084,-10.990299 14.875634,-8.58306 4.421676,6.63961 1.127898,1.69105 z m 28.662809,-20.803798 -29.890088,17.254479 -0.683052,-1.02221 2.830002,-3.26224 36.730048,-21.206056 -1.27619,1.473366 v 0 l -1.48441,1.716298 v 0 l -2.29366,2.643856 v 0 h -0.002 l -0.22243,0.258707 z M 117.0469,50.641018 c -0.008,-0.05837 0.01,-0.116734 -0.0221,-0.171946 l -0.5537,-0.973304 4.80501,3.216481 -1.29037,0.747726 -3.59824,-2.077541 0.45904,-0.266595 0.005,-0.0016 c 0.0536,-0.03155 0.0694,-0.09307 0.10569,-0.138819 0.0379,-0.0489 0.0962,-0.08676 0.11201,-0.146704 0.0158,-0.05994 -0.0126,-0.124622 -0.0221,-0.187721 z m 5.04478,2.694336 2.90888,3.017718 -4.06675,-2.347289 z m -2.34255,1.078996 0.003,0.0016 h 0.003 l 7.67443,4.431141 6.63962,3.831699 -4.54788,2.626504 -33.702848,-19.462946 4.544708,-2.621772 14.84408,8.570448 0.003,0.0016 v 0.0016 z m 14.79518,9.086283 v 0.742994 1.810946 0.0032 0.0063 2.686448 l -4.54945,2.628082 v -5.253008 z m -5.49436,2.624927 v 5.253008 l -19.81314,-11.441461 -4.54158,-2.623349 -6.494467,-3.744937 -2.437209,-6.664853 z m -13.60577,-15.290512 -14.8425,-8.570447 c -0.0221,-0.01104 -0.0426,0 -0.0631,-0.0079 -0.0568,-0.02366 -0.11043,-0.02366 -0.17353,-0.02208 -0.0631,0 -0.11673,-0.0016 -0.17352,0.02208 -0.0205,0.0079 -0.041,-0.0032 -0.0631,0.0079 l -5.48962,3.167579 c -0.04417,0.02682 -0.06152,0.07572 -0.09623,0.113578 -0.02208,0.02524 -0.05837,0.02997 -0.0773,0.05994 -0.0059,0.01262 0,0.02682 -0.0059,0.03944 -0.03313,0.07099 -0.03313,0.145129 -0.0284,0.22558 0.002,0.03944 -0.01262,0.07414 0,0.110424 0.002,0.0079 -0.003,0.01577 0,0.02366 l 2.942004,8.04988 c 0.03628,0.104113 0.110424,0.179832 0.197184,0.233466 0.0059,0.0032 0.0049,0.0095 0.0099,0.01262 l 5.934472,3.421554 -14.022214,8.097204 -4.041501,-20.488308 20.754885,-11.979383 8.45688,14.87248 v 0 l 1.3093,2.303121 z M 88.522922,65.810064 62.262616,55.703151 69.326571,31.443088 84.486152,45.332799 Z M 61.437593,55.146301 61.081083,54.835537 v 0 0 L 43.941767,39.996184 47.954875,30.029666 v 0 l 0.560006,-1.388182 19.956695,2.344134 z M 42.93849,39.956747 c -0.0142,0.03628 0.0063,0.07099 0,0.107269 -0.0095,0.0631 -0.01262,0.112001 0.0016,0.173522 0.0142,0.06152 0.04101,0.104114 0.0773,0.156171 0.02209,0.02997 0.01893,0.07099 0.0489,0.09623 l 16.891629,14.624812 -3.484653,2.012864 -25.602498,-17.121966 15.69277,-9.059468 z m 17.776618,15.814235 0.659387,0.574203 c 0.02524,0.02208 0.05679,0.01577 0.08361,0.03155 0.02366,0.0142 0.02997,0.04259 0.05679,0.05363 l 27.467079,10.57227 c 0.05521,0.02209 0.113578,0.03155 0.168789,0.03155 v 0 h 0.002 0.002 v 0 c 0.03155,0 0.05994,-0.0032 0.08992,-0.0095 0.01735,-0.0032 0.02524,-0.02209 0.03944,-0.02524 0.03313,-0.01262 0.07099,-0.0095 0.104113,-0.03155 l 15.069594,-8.701339 3.59508,2.07754 L 82.956785,74.836403 57.35271,57.714438 Z m 48.285072,5.1205 20.28482,11.715942 h 0.003 c 0.0505,0.0284 0.10885,0.03628 0.16722,0.04575 0.0237,0.0032 0.0426,0.01578 0.0662,0.01578 v 0 0 c 0.0237,0 0.0426,-0.01262 0.0662,-0.01578 0.0584,-0.0095 0.11674,-0.01893 0.16722,-0.04575 h 0.003 l 5.49279,-3.173889 c 0.0221,-0.01262 0.0221,-0.03628 0.0394,-0.05206 0.0489,-0.03628 0.0741,-0.08361 0.10411,-0.138817 0.0331,-0.05206 0.0599,-0.0978 0.0678,-0.160904 0.003,-0.02208 0.0252,-0.03628 0.0252,-0.05837 V 67.236099 L 138.0253,69.867335 99.642066,92.034081 83.698475,75.502093 Z m 25.90223,14.301432 0.72091,-0.837642 1.54592,2.320473 z m 0.76035,1.626381 -2.54764,0.430653 1.15945,-1.337703 z m -5.21357,2.659632 1.40552,-0.81398 c 0.0284,-0.01578 0.0315,-0.0489 0.0521,-0.06783 0.0205,-0.01893 0.0521,-0.01262 0.0694,-0.03313 l 0.16406,-0.187719 4.68984,-0.791896 0.78401,0.514259 z m 23.42082,-10.356155 -14.87405,8.586223 -2.7306,-4.098294 2.88204,-3.323749 c 0.0252,-0.03155 0.0173,-0.07099 0.0331,-0.100959 0.0284,-0.0489 0.0489,-0.08992 0.0584,-0.145128 0.003,-0.0284 0.0158,-0.0489 0.0158,-0.0773 -0.002,-0.04259 -0.0284,-0.07414 -0.041,-0.116734 -0.011,-0.03628 0.005,-0.07414 -0.0142,-0.107267 -0.011,-0.01893 -0.0331,-0.01893 -0.0473,-0.03628 -0.0126,-0.01578 -0.008,-0.03628 -0.0221,-0.05206 l -3.64082,-3.778065 V 64.513371 L 146.549,58.130888 Z m -8.04513,-11.665464 -10.33407,5.966029 v -0.742993 c 0,-0.02366 -0.0221,-0.03628 -0.0252,-0.05837 -0.006,-0.04259 -0.0126,-0.07414 -0.0316,-0.113579 -0.008,-0.02208 0.003,-0.04417 -0.008,-0.06468 -0.011,-0.02051 -0.0378,-0.02208 -0.0505,-0.03944 -0.0268,-0.03313 -0.0489,-0.05679 -0.0836,-0.08203 -0.0189,-0.0142 -0.0189,-0.03944 -0.0394,-0.05048 l -7.2927,-4.210293 -5.44545,-5.650532 c -0.0142,-0.0142 -0.0331,-0.0095 -0.0473,-0.02051 -0.0142,-0.01262 -0.0126,-0.03313 -0.03,-0.04417 l -7.00718,-4.689847 -8.63669,-15.187977 h -0.002 v -0.0016 c -0.0126,-0.02208 -0.0379,-0.02366 -0.0536,-0.04259 -0.0158,-0.01893 -0.011,-0.04575 -0.03,-0.06468 L 95.242591,21.446598 Z M 105.59913,32.610422 84.984635,44.507776 69.880266,30.668545 90.841817,18.564542 Z m -21.704533,-19.245249 5.801969,4.131415 -12.848572,-0.06625 z m -15.612318,4.969057 1.73996,0.0095 5.073175,0.02366 h 0.0032 0.0032 L 89.163468,18.43995 68.984347,30.092793 49.685459,27.824377 66.135418,18.323216 Z m -8.247065,-0.899163 5.377629,0.212959 -17.435885,10.070631 c -0.01104,0.0063 -0.01104,0.02209 -0.02208,0.02997 -0.04417,0.02997 -0.0631,0.07414 -0.09465,0.116734 -0.02524,0.03313 -0.06941,0.04575 -0.08518,0.08676 l -0.635723,1.572747 -17.281292,9.974406 -7.521423,-0.299721 z m -38.70662,22.671541 8.496306,0.337581 26.369151,17.634646 26.443294,17.680394 16.281171,16.886922 -2.429322,2.79687 -4.322295,-6.49133 c -0.01893,-0.0284 -0.05206,-0.0284 -0.07414,-0.0489 -0.02209,-0.0205 -0.02209,-0.0552 -0.04575,-0.0741 L 29.266472,44.130759 c -0.02524,-0.01735 -0.05679,-0.0063 -0.08361,-0.01893 -0.05679,-0.02682 -0.105692,-0.03628 -0.170367,-0.03786 -0.0631,-0.0032 -0.113579,0 -0.173524,0.02366 -0.02839,0.0095 -0.05837,-0.0047 -0.08361,0.01104 l -5.309797,3.065043 z m 2.072808,8.185542 5.563772,-3.211749 61.930277,44.09214 -14.795182,8.54047 L 14.173144,53.617722 Z M 75.729561,98.609021 82.250863,108.39413 7.5997853,59.547469 v 0 L 6.3172942,58.706672 13.2866,54.149333 49.737667,80.102676 Z"
     id="path815"
     inkscape:connector-curvature="0"
     style="fill:#000000;fill-opacity:1;stroke:none;stroke-width:0;stroke-miterlimit:4;stroke-dasharray:none;stroke-opacity:1"
     sodipodi:nodetypes="cccccccsccccccsccccccscccsccccccccccccccccccccccccscccccccccccccccccccscccccccccccccscccccccccccccccccccccccccccccccccccccccsccccccccccccccccccccccccccccccccccccccccccccccccccccccccccccccccccccccccccscccccccccccccccccccccccccccccccccccccccscccccccccccccccsccccccccccccccccccccccsccscccccccccccscccccccccccccccccccccccccccccccccccccccscccccccccccccccccccccc" /></svg>